<?xml version="1.0" encoding="UTF-8" standalone="no"?>
<svg
   version="1.1"
   style="display: block;"
   viewBox="0 0 2048 1670"
   width="552"
   height="450"
   preserveAspectRatio="none"
   id="svg5"
   sodipodi:docname="logo.svg"
   inkscape:version="1.4.2 (ebf0e940d0, 2025-05-08)"
   xmlns:inkscape="http://www.inkscape.org/namespaces/inkscape"
   xmlns:sodipodi="http://sodipodi.sourceforge.net/DTD/sodipodi-0.dtd"
   xmlns="http://www.w3.org/2000/svg"
   xmlns:svg="http://www.w3.org/2000/svg">
  <defs
     id="defs5" />
  <sodipodi:namedview
     id="namedview5"
     pagecolor="#ffffff"
     bordercolor="#000000"
     borderopacity="0.25"
     inkscape:showpageshadow="2"
     inkscape:pageopacity="0.0"
     inkscape:pagecheckerboard="0"
     inkscape:deskcolor="#d1d1d1"
     inkscape:zoom="0.45122336"
     inkscape:cx="-149.59332"
     inkscape:cy="593.94088"
     inkscape:window-width="1920"
     inkscape:window-height="1011"
     inkscape:window-x="0"
     inkscape:window-y="32"
     inkscape:window-maximized="1"
     inkscape:current-layer="svg5" />
  <path
     transform="translate(0,0)"
     fill="rgb(11,65,149)"
     d="M 1016.67 246.43 L 1017.39 246.368 C 1057.89 243.155 1117.72 254.206 1155.5 268.929 C 1177.24 277.402 1199.53 289.026 1220.35 299.677 L 1305.77 343.908 L 1546.25 467.509 L 1835.44 615.633 L 1919.1 658.081 C 1963.94 680.875 2022.55 705.895 2027.04 764.576 C 2032.44 835.036 1955.89 865.009 1903.99 891.1 L 1809.6 938.618 L 1536.51 1077.65 L 1310.93 1194.09 C 1215.09 1243.71 1159.41 1281.65 1049.25 1288.61 C 995.844 1290.13 947.162 1283.59 896.836 1264.69 C 876.767 1257.16 855.951 1246.11 836.756 1236.34 L 748.879 1190.99 L 468.906 1047.06 L 209.422 915.301 L 144.724 882.867 C 123.079 872.08 98.2209 861.096 79.6241 845.828 C 58.7042 828.653 39.4864 799.091 38.081 771.331 C 34.6876 704.303 107.042 675.749 156.415 650.65 L 247.198 604.371 L 521.562 463.075 L 758.222 340.946 L 835.21 301.125 C 902.922 266.181 939.019 251.095 1016.67 246.43 z"
     id="path2" />
  <path
     transform="translate(0,0)"
     fill="rgb(225,53,60)"
     d="M 641.121 598.46 C 728.879 590.262 806.765 654.52 815.39 742.237 C 824.014 829.955 760.134 908.152 672.459 917.201 C 584.182 926.313 505.329 861.897 496.645 773.576 C 487.961 685.255 552.759 606.716 641.121 598.46 z"
     id="path3" />
  <path
     transform="translate(0,0)"
     fill="rgb(11,65,149)"
     d="M 1889.97 1002.42 C 1966.09 994.222 2058.26 1074.56 2017.1 1153.71 C 1996.96 1192.42 1955.53 1210.63 1918.41 1229.4 L 1846.44 1265.86 L 1581.81 1401.97 L 1326.69 1534.64 C 1281.66 1558.11 1213.46 1597.15 1166.71 1612.16 C 1092.19 1636.38 1012.4 1639.33 936.293 1620.69 C 875.3 1605.74 825.839 1576.2 770.316 1547.65 L 631.078 1476.07 L 188.088 1247.99 C 158.146 1232.55 125.866 1218.32 97.3921 1201.47 C -33.054 1124.26 73.0904 985.62 194.595 1007.42 C 222.947 1012.51 248.478 1028.36 273.57 1041.07 L 338.303 1073.93 L 665.578 1241.49 L 789.328 1304.7 C 845.869 1333.38 890.629 1360.06 954.212 1370.92 C 1017.04 1381.64 1079.16 1380.24 1140.99 1363.46 C 1186.74 1351.04 1225.04 1329.19 1266.72 1307.69 L 1376.8 1250.91 C 1495.06 1189.61 1613.7 1129.05 1732.71 1069.24 L 1808.11 1031.19 C 1838.18 1016.03 1855.44 1005.2 1889.97 1002.42 z"
     id="path4" />
  <path
     transform="translate(0,0)"
     fill="rgb(225,53,60)"
     d="M 1562.52 94.6438 C 1649.63 87.9553 1725.65 153.17 1732.29 240.276 C 1738.93 327.383 1673.68 403.37 1586.57 409.967 C 1499.52 416.558 1423.61 351.363 1416.97 264.322 C 1410.33 177.28 1475.49 101.327 1562.52 94.6438 z"
     id="path5" />
</svg>
